<svg width="33" height="25" viewBox="0 0 33 25" fill="none" xmlns="http://www.w3.org/2000/svg">
<path d="M31.2619 0.210675C31.4264 0.0896887 31.62 0.0178065 31.8214 0.00290416C32.0228 -0.0119982 32.2243 0.0306544 32.4038 0.126189C32.5833 0.221723 32.7338 0.366453 32.839 0.544522C32.9442 0.722592 32.9999 0.92713 33 1.13573V23.8643C32.9999 24.0729 32.9442 24.2774 32.839 24.4555C32.7338 24.6335 32.5833 24.7783 32.4038 24.8738C32.2243 24.9693 32.0228 25.012 31.8214 24.9971C31.62 24.9822 31.4264 24.9103 31.2619 24.7893L17.5996 14.7092V23.8643C17.5994 24.0729 17.5437 24.2774 17.4386 24.4555C17.3334 24.6335 17.1828 24.7783 17.0033 24.8738C16.8238 24.9693 16.6223 25.012 16.4209 24.9971C16.2195 24.9822 16.026 24.9103 15.8615 24.7893L0.461061 13.4251C0.318463 13.3199 0.202231 13.1811 0.122035 13.0202C0.0418391 12.8593 -1.54614e-06 12.681 -1.54614e-06 12.5C-1.54614e-06 12.319 0.0418391 12.1407 0.122035 11.9798C0.202231 11.8189 0.318463 11.6801 0.461061 11.5749L15.8615 0.210675C16.026 0.0896887 16.2195 0.0178065 16.4209 0.00290416C16.6223 -0.0119982 16.8238 0.0306544 17.0033 0.126189C17.1828 0.221723 17.3334 0.366453 17.4386 0.544522C17.5437 0.722592 17.5994 0.92713 17.5996 1.13573V10.2908L31.2619 0.210675Z" fill="#1E1E1E"/>
</svg>
