<svg width="33" height="25" viewBox="0 0 33 25" fill="none" xmlns="http://www.w3.org/2000/svg">
<path d="M1.73805 0.210675C1.57357 0.0896887 1.38002 0.0178065 1.17862 0.00290416C0.977218 -0.0119982 0.775731 0.0306544 0.596235 0.126189C0.416739 0.221723 0.266158 0.366453 0.16099 0.544522C0.0558218 0.722592 0.000124449 0.92713 0 1.13573V23.8643C0.000124449 24.0729 0.0558218 24.2774 0.16099 24.4555C0.266158 24.6335 0.416739 24.7783 0.596235 24.8738C0.775731 24.9693 0.977218 25.012 1.17862 24.9971C1.38002 24.9822 1.57357 24.9103 1.73805 24.7893L15.4004 14.7092V23.8643C15.4006 24.0729 15.4563 24.2774 15.5614 24.4555C15.6666 24.6335 15.8172 24.7783 15.9967 24.8738C16.1762 24.9693 16.3777 25.012 16.5791 24.9971C16.7805 24.9822 16.974 24.9103 17.1385 24.7893L32.5389 13.4251C32.6815 13.3199 32.7978 13.1811 32.878 13.0202C32.9582 12.8593 33 12.681 33 12.5C33 12.319 32.9582 12.1407 32.878 11.9798C32.7978 11.8189 32.6815 11.6801 32.5389 11.5749L17.1385 0.210675C16.974 0.0896887 16.7805 0.0178065 16.5791 0.00290416C16.3777 -0.0119982 16.1762 0.0306544 15.9967 0.126189C15.8172 0.221723 15.6666 0.366453 15.5614 0.544522C15.4563 0.722592 15.4006 0.92713 15.4004 1.13573V10.2908L1.73805 0.210675Z" fill="#1E1E1E"/>
</svg>
