<svg width="26" height="34" viewBox="0 0 26 34" fill="none" xmlns="http://www.w3.org/2000/svg">
<path d="M22.3468 20.3956C23.316 20.3965 24.2452 20.8 24.9302 21.5173C25.6152 22.2347 26 23.2073 26 24.2213V25.7823C26 26.7566 25.7091 27.7065 25.1679 28.4994C22.6555 32.1789 18.5538 34 12.9959 34C7.43484 34 3.33471 32.1772 0.828802 28.4977C0.289473 27.7053 -0.000245153 26.7567 1.55651e-07 25.784V24.2196C0.000430813 23.2056 0.385633 22.2332 1.07096 21.5161C1.75628 20.7991 2.68566 20.396 3.65485 20.3956H22.3468ZM12.9943 0C14.0614 -1.66365e-08 15.118 0.219903 16.1038 0.647153C17.0896 1.0744 17.9854 1.70063 18.7399 2.49009C19.4944 3.27955 20.093 4.21677 20.5013 5.24824C20.9096 6.27971 21.1198 7.38524 21.1198 8.5017C21.1198 9.61816 20.9096 10.7237 20.5013 11.7552C20.093 12.7866 19.4944 13.7239 18.7399 14.5133C17.9854 15.3028 17.0896 15.929 16.1038 16.3562C15.118 16.7835 14.0614 17.0034 12.9943 17.0034C10.8393 17.0034 8.77254 16.1077 7.24871 14.5133C5.72488 12.9189 4.8688 10.7565 4.8688 8.5017C4.8688 6.24691 5.72488 4.08447 7.24871 2.49009C8.77254 0.895712 10.8393 0 12.9943 0Z" fill="#727272"/>
</svg>
